<?xml version="1.0" standalone="no"?>
<!DOCTYPE svg PUBLIC "-//W3C//DTD SVG 20010904//EN"
 "http://www.w3.org/TR/2001/REC-SVG-20010904/DTD/svg10.dtd">
<svg version="1.0" xmlns="http://www.w3.org/2000/svg"
 width="1000.000000pt" height="1000.000000pt" viewBox="0 0 1000.000000 1000.000000"
 preserveAspectRatio="xMidYMid meet">

<g transform="translate(0.000000,1000.000000) scale(0.100000,-0.100000)"
fill="#000000" stroke="none">
<path d="M5872 8201 c-19 -16 -22 -29 -21 -73 2 -55 -1 -74 -14 -95 -5 -7 -6
-17 -3 -22 3 -5 -1 -14 -9 -21 -8 -7 -15 -21 -15 -32 0 -10 -8 -33 -17 -51 -9
-18 -17 -36 -18 -42 0 -5 -8 -27 -18 -49 -9 -21 -17 -42 -17 -46 0 -4 -7 -21
-15 -36 -8 -16 -15 -39 -15 -52 0 -12 -6 -25 -14 -28 -8 -3 -12 -12 -10 -19 8
-19 -14 -55 -33 -55 -13 0 -13 -3 -3 -15 10 -12 9 -22 -4 -50 -10 -20 -22 -60
-29 -90 -6 -30 -15 -55 -19 -55 -4 0 -8 -11 -8 -25 0 -14 -4 -25 -8 -25 -4 0
-13 -21 -19 -47 -5 -27 -13 -55 -17 -63 -8 -20 33 -71 59 -72 11 0 65 3 120 8
55 4 117 8 138 8 20 1 37 4 37 7 0 3 14 4 30 1 19 -3 49 5 83 21 28 13 68 28
87 32 36 8 66 22 88 43 7 6 20 12 28 12 31 0 136 203 136 265 0 6 -1 44 -2 85
-1 41 4 93 12 115 12 35 11 46 -8 103 -20 60 -47 102 -65 102 -5 0 -29 20 -54
44 -25 24 -69 56 -98 71 -29 16 -57 35 -63 43 -7 9 -18 13 -29 9 -12 -5 -16
-3 -12 6 3 9 -10 18 -38 26 -39 11 -44 17 -47 44 -2 26 -8 32 -28 34 -14 2
-35 -6 -48 -16z m105 -125 c4 -7 37 -28 73 -45 36 -18 72 -39 81 -47 8 -8 20
-14 25 -14 5 0 17 -19 28 -41 10 -22 28 -44 40 -49 36 -16 63 -42 48 -47 -10
-4 -10 -8 -1 -19 6 -7 9 -19 6 -26 -2 -7 -1 -23 4 -34 4 -12 5 -25 1 -28 -11
-11 -16 -49 -16 -119 -1 -59 -3 -67 -20 -67 -18 0 -18 -1 -2 -19 17 -19 17
-21 -1 -53 -10 -18 -24 -38 -32 -44 -10 -8 -11 -13 -3 -18 17 -11 -39 -88 -60
-83 -3 1 -17 -8 -30 -19 -13 -12 -41 -27 -63 -34 -22 -7 -45 -16 -51 -21 -6
-5 -13 -7 -15 -4 -3 2 -41 -4 -85 -14 -95 -23 -153 -28 -217 -17 -47 7 -49 8
-41 34 4 15 8 39 7 55 0 15 4 27 8 27 5 0 9 13 9 29 0 17 4 32 9 35 5 3 14 30
21 58 7 29 19 64 28 78 9 14 16 28 14 32 -1 4 5 23 13 42 8 19 15 47 15 61 0
15 7 33 15 41 8 8 12 20 9 27 -2 7 4 22 16 32 11 10 20 28 20 41 0 13 5 26 10
29 6 3 10 16 10 29 0 12 7 31 15 42 8 10 15 29 15 41 0 12 5 25 10 28 6 3 10
17 10 31 0 13 4 24 9 24 5 0 12 14 16 30 7 32 37 42 52 16z"/>
<path d="M5010 8128 c-25 -5 -110 -10 -190 -12 -80 -2 -149 -4 -153 -5 -4 0
-13 -14 -18 -31 -8 -22 -17 -30 -35 -30 -14 0 -40 -7 -59 -14 -45 -19 -38 -40
22 -68 l45 -21 -4 -54 c-3 -30 -2 -56 2 -58 3 -2 3 -30 0 -62 -4 -32 -4 -68 1
-79 4 -12 5 -24 3 -27 -3 -3 3 -8 14 -11 19 -7 21 -27 26 -268 0 -27 3 -48 6
-48 3 0 6 -15 5 -32 0 -32 1 -33 49 -36 26 -2 69 2 95 8 55 13 106 20 186 25
95 6 159 16 173 28 10 8 8 15 -9 33 -18 19 -30 23 -75 21 -50 -3 -54 -1 -65
26 -14 34 -31 18 -23 -23 5 -20 2 -26 -14 -27 -10 -1 -54 -6 -96 -12 -90 -13
-159 -14 -153 -3 3 4 1 34 -4 67 -13 91 -12 230 1 255 7 14 18 20 30 17 10 -2
41 1 69 9 33 8 61 10 81 4 16 -5 32 -5 34 -1 3 4 20 7 38 5 69 -5 94 13 83 59
-5 20 -14 22 -74 25 -40 2 -72 -1 -75 -7 -5 -7 -15 -7 -32 -1 -42 16 -144 13
-150 -5 -4 -8 -14 -15 -23 -15 -15 0 -17 12 -16 93 2 169 -2 160 80 173 11 2
54 10 95 18 41 8 77 13 81 10 11 -6 162 27 177 39 31 25 -53 48 -128 35z"/>
<path d="M4056 7911 c-14 -15 -16 -29 -11 -60 4 -23 11 -43 16 -47 5 -3 9 -17
9 -31 0 -15 7 -34 15 -43 9 -9 17 -39 19 -67 2 -27 9 -59 15 -71 6 -12 10 -22
7 -22 -3 0 8 -39 24 -86 16 -48 27 -91 24 -96 -3 -5 -1 -15 5 -21 5 -7 10 -22
10 -32 1 -50 9 -103 20 -123 7 -12 9 -27 6 -33 -4 -5 -1 -16 5 -24 6 -8 9 -19
5 -25 -4 -6 -8 -24 -10 -40 -3 -21 1 -31 14 -35 11 -3 21 -15 24 -25 3 -13 14
-20 28 -20 28 0 59 27 52 46 -6 15 33 69 50 70 7 0 35 12 64 27 29 15 60 29
70 31 45 10 64 19 54 26 -7 4 4 16 26 31 26 16 39 33 41 51 3 22 0 26 -20 24
-49 -6 -88 -18 -83 -26 3 -4 -6 -11 -20 -14 -14 -4 -25 -11 -25 -16 0 -6 -6
-10 -13 -10 -8 0 -28 -7 -44 -15 -17 -9 -56 -18 -86 -21 -62 -6 -67 -1 -72 80
-3 40 -7 58 -26 104 -5 13 -9 38 -9 57 0 19 -5 58 -11 87 -10 51 -18 72 -60
163 -11 22 -21 57 -22 77 -2 21 -7 41 -10 45 -4 3 -7 15 -7 25 0 19 -38 78
-50 78 -4 0 -15 -9 -24 -19z"/>
<path d="M6605 7790 c-4 -7 3 -34 15 -60 l23 -49 -37 -42 c-20 -23 -34 -44
-31 -47 7 -7 -46 -72 -59 -72 -15 0 -34 -62 -26 -85 4 -10 0 -26 -7 -34 -31
-35 -113 -151 -113 -159 0 -6 -13 -23 -28 -40 -15 -16 -26 -34 -24 -40 1 -5
-4 -17 -13 -26 -12 -12 -13 -20 -6 -35 10 -17 73 -61 96 -66 15 -3 69 -29 75
-35 3 -3 22 -14 42 -23 21 -10 43 -26 50 -35 7 -10 29 -24 48 -32 19 -7 47
-22 62 -32 14 -10 36 -18 48 -18 18 0 21 4 16 23 -3 12 -6 27 -6 32 0 6 -18
21 -41 35 -37 23 -40 28 -35 58 6 38 -10 42 -26 7 -13 -29 -25 -31 -49 -9 -9
8 -23 17 -31 18 -39 7 -189 105 -160 106 6 0 12 7 12 15 0 8 7 15 16 15 8 0
13 4 10 9 -8 12 20 65 72 139 67 95 70 96 150 57 37 -19 78 -45 91 -59 13 -14
28 -23 32 -20 5 3 9 0 9 -5 0 -6 5 -11 11 -11 7 0 17 -7 23 -15 6 -9 24 -17
40 -18 23 -1 33 4 42 22 11 22 9 27 -28 63 -22 22 -54 42 -71 45 -17 4 -32 14
-34 25 -3 10 -9 18 -13 18 -4 0 -24 14 -45 30 -22 17 -50 30 -66 30 -15 0 -31
5 -34 10 -3 6 -1 10 4 10 6 0 11 5 11 12 0 12 77 114 115 152 l22 22 49 -22
c27 -13 54 -23 60 -24 6 0 17 -7 24 -15 7 -9 19 -14 27 -11 7 3 13 1 13 -4 0
-5 11 -12 25 -16 14 -3 25 -10 25 -15 0 -4 17 -15 38 -25 20 -9 53 -25 73 -35
68 -35 95 -19 53 30 -14 17 -55 45 -89 62 -35 17 -69 37 -76 45 -6 8 -15 14
-20 14 -5 0 -27 18 -49 40 -22 22 -43 39 -47 38 -5 -2 -25 10 -45 25 -36 28
-37 28 -68 12 -28 -14 -34 -15 -53 -2 -33 21 -84 30 -92 17z"/>
<path d="M3610 7639 c-25 -4 -65 -10 -90 -13 -80 -12 -171 -70 -154 -97 4 -6
8 -36 11 -68 4 -61 9 -96 13 -96 1 0 4 -11 5 -25 2 -14 6 -41 10 -60 4 -19 8
-42 9 -50 2 -8 8 -28 15 -43 14 -37 14 -54 -1 -60 -10 -4 -10 -7 0 -18 10 -11
12 -11 12 0 0 11 3 11 15 1 8 -7 15 -18 15 -24 0 -27 164 -156 198 -156 6 0
43 -19 83 -41 64 -37 85 -46 112 -48 4 -1 16 -10 27 -21 11 -11 20 -15 20 -9
0 5 4 7 10 4 13 -8 67 22 80 44 11 22 13 68 4 135 -12 86 -58 47 -59 -49 0
-25 -4 -30 -28 -32 -15 -1 -39 5 -55 13 -15 7 -33 14 -41 14 -24 0 -92 44 -87
56 3 8 -12 14 -40 19 -25 3 -53 13 -62 21 -69 57 -111 105 -126 144 -10 25
-22 54 -26 65 -8 19 -23 89 -24 110 -1 6 -5 13 -9 16 -4 3 -4 17 2 30 5 15 5
32 0 41 -11 19 -1 74 15 87 12 9 54 18 126 27 25 3 65 9 90 14 71 14 164 -13
221 -65 49 -44 79 -47 79 -6 0 31 -16 53 -53 73 -12 6 -40 26 -62 43 -30 24
-45 31 -60 25 -11 -5 -38 -6 -60 -4 -22 3 -51 6 -65 8 -14 1 -45 -1 -70 -5z"/>
<path d="M3017 7313 c-18 -17 -3 -66 38 -126 25 -37 45 -71 45 -76 0 -6 20
-25 45 -43 24 -18 44 -38 45 -44 0 -6 16 -27 35 -47 19 -19 44 -54 55 -76 12
-22 28 -45 36 -52 8 -6 14 -20 14 -30 0 -11 4 -19 8 -19 4 0 13 -21 20 -47 8
-27 18 -56 23 -66 5 -9 12 -37 15 -61 l6 -43 -44 -11 c-54 -14 -108 -1 -155
37 -61 50 -88 66 -107 62 -13 -2 -17 2 -13 12 5 14 -71 87 -91 87 -5 0 -12 9
-15 20 -3 11 -13 23 -22 27 -17 6 -46 30 -118 96 -16 15 -34 27 -40 27 -5 0
-6 7 -3 15 7 18 -8 45 -47 88 -33 36 -52 26 -50 -28 1 -26 9 -43 33 -65 20
-19 30 -36 26 -46 -9 -23 22 -63 61 -79 49 -21 157 -102 231 -174 35 -33 66
-61 69 -61 3 0 32 -22 65 -50 54 -45 64 -50 109 -50 82 0 138 18 154 51 15 28
21 130 8 142 -3 4 -18 42 -32 85 -15 42 -31 84 -36 92 -6 8 -14 27 -20 41 -10
28 -66 97 -122 155 -18 18 -33 37 -33 43 0 6 -13 23 -30 38 -16 14 -30 32 -30
38 0 7 -9 20 -20 30 -11 10 -20 24 -20 32 0 7 -7 16 -15 19 -8 4 -12 10 -9 16
15 23 -49 61 -69 41z"/>
<path d="M4100 7120 c0 -5 7 -7 15 -4 8 4 15 8 15 10 0 2 -7 4 -15 4 -8 0 -15
-4 -15 -10z"/>
<path d="M4155 7110 c-3 -5 -1 -10 4 -10 6 0 11 5 11 10 0 6 -2 10 -4 10 -3 0
-8 -4 -11 -10z"/>
<path d="M4100 7079 c0 -5 5 -7 10 -4 6 3 10 8 10 11 0 2 -4 4 -10 4 -5 0 -10
-5 -10 -11z"/>
<path d="M7668 7011 c-8 -12 -17 -18 -21 -15 -3 3 -10 -4 -17 -15 -6 -12 -17
-21 -25 -21 -7 0 -23 -12 -33 -27 -11 -16 -37 -37 -59 -48 -21 -10 -45 -25
-53 -32 -8 -7 -47 -40 -87 -73 -40 -33 -78 -60 -86 -60 -8 0 -17 -7 -21 -15
-3 -8 -15 -15 -26 -15 -11 0 -23 -7 -26 -15 -4 -8 -14 -15 -24 -15 -10 0 -31
-12 -47 -27 -36 -33 -67 -50 -110 -58 -23 -5 -33 -12 -33 -25 0 -9 -7 -23 -15
-30 -20 -17 -19 -43 3 -63 21 -19 39 -22 44 -7 5 14 88 -10 88 -25 0 -7 15
-24 34 -39 41 -31 55 -44 81 -79 18 -25 44 -39 30 -17 -12 20 12 9 35 -15 27
-28 80 -35 80 -10 0 27 -39 85 -57 85 -11 0 -113 94 -113 103 0 4 -12 25 -26
47 -14 21 -23 43 -21 47 3 5 31 22 61 37 31 16 56 32 56 37 0 5 5 9 11 9 7 0
19 8 28 19 9 10 26 21 38 25 57 18 223 147 223 174 0 4 22 19 50 33 27 13 50
29 50 36 0 6 9 15 20 18 24 7 56 63 43 75 -4 5 -20 12 -34 15 -20 5 -30 2 -41
-14z"/>
<path d="M4105 6970 c-3 -5 -1 -10 4 -10 6 0 11 5 11 10 0 6 -2 10 -4 10 -3 0
-8 -4 -11 -10z"/>
<path d="M5075 6794 c-204 -27 -457 -97 -624 -170 -216 -96 -407 -294 -645
-669 -116 -183 -159 -263 -191 -357 -78 -237 -45 -434 96 -561 l60 -54 -37
-44 c-100 -119 -246 -366 -317 -539 -104 -253 -121 -382 -61 -457 63 -78 135
-107 364 -148 74 -13 169 -35 210 -49 107 -35 221 -57 328 -63 50 -3 92 -8 92
-11 0 -2 -32 -33 -70 -69 -93 -86 -193 -212 -235 -297 -28 -55 -45 -76 -92
-108 -277 -192 -257 -351 68 -544 345 -205 367 -214 512 -214 100 0 199 26
275 71 64 39 158 118 188 160 24 32 33 39 54 34 398 -86 651 -66 741 58 16 22
39 66 50 98 12 32 29 60 38 63 9 2 52 7 96 11 337 27 496 104 609 296 27 46
80 127 116 179 141 201 182 294 182 415 0 103 -33 172 -108 223 -40 27 -136
62 -171 62 -33 0 -29 14 15 43 106 70 267 247 320 352 87 174 100 392 35 598
-82 261 -236 434 -499 561 l-81 38 25 97 c13 53 26 142 29 199 7 123 -8 171
-66 223 -29 27 -39 45 -45 79 -20 125 -139 283 -261 347 -131 68 -359 133
-537 152 -129 14 -339 12 -463 -5z m564 -109 c51 -9 139 -31 194 -48 l100 -32
-109 -1 c-116 -1 -183 -18 -268 -68 -55 -32 -209 -193 -274 -285 -52 -74 -53
-75 -135 -103 -45 -16 -110 -35 -143 -43 -153 -34 -301 -149 -419 -326 -28
-41 -80 -106 -116 -145 -36 -39 -90 -101 -120 -138 -39 -49 -80 -85 -149 -130
-100 -66 -248 -186 -315 -255 -21 -22 -44 -41 -50 -41 -18 0 -86 61 -111 102
-38 59 -58 151 -50 228 18 175 70 285 289 615 168 253 327 413 492 497 147 75
412 154 615 182 140 20 440 15 569 -9z m299 -190 c91 -28 138 -85 166 -204
l14 -60 -36 -7 c-51 -9 -256 -70 -319 -95 l-51 -21 -93 37 c-68 28 -112 38
-170 42 -44 3 -79 8 -79 11 0 2 15 25 34 51 53 71 176 187 225 212 92 47 217
61 309 34z m265 -120 c36 -72 45 -115 24 -115 -10 0 -19 17 -26 52 -6 28 -20
71 -31 96 -28 63 0 36 33 -33z m57 -219 c0 -3 -4 -8 -10 -11 -5 -3 -10 -1 -10
4 0 6 5 11 10 11 6 0 10 -2 10 -4z m-83 -132 c25 -79 32 -116 26 -136 l-8 -27
-60 46 c-62 47 -155 97 -239 129 l-50 18 35 14 c42 18 240 71 253 68 6 -1 25
-51 43 -112z m-634 51 c26 -9 47 -21 47 -25 0 -5 -16 -18 -36 -31 -20 -12 -64
-46 -97 -75 -34 -29 -65 -50 -69 -48 -5 3 -8 15 -8 27 0 31 -43 118 -69 142
-21 18 -21 20 -4 27 29 13 184 1 236 -17z m804 -140 c-12 -61 -15 -67 -24 -47
-6 17 -3 50 11 115 20 86 21 89 24 47 1 -25 -4 -76 -11 -115z m-537 29 c140
-53 235 -102 283 -146 l42 -39 -30 6 c-171 37 -249 46 -395 44 -168 -2 -223 8
-200 37 15 17 187 134 198 134 4 0 50 -16 102 -36z m-703 10 c3 -8 -12 -61
-33 -116 l-39 -101 -113 -53 c-132 -62 -340 -146 -352 -142 -17 6 147 178 232
245 95 75 264 183 285 183 8 0 16 -7 20 -16z m173 -54 c19 -67 10 -90 -35 -90
-16 0 -26 117 -12 144 9 19 10 19 23 1 8 -11 19 -35 24 -55z m734 -209 c54
-12 100 -21 102 -21 2 0 4 -6 4 -13 0 -8 -31 -19 -83 -30 l-82 -17 -115 50
c-63 27 -122 50 -130 51 -8 1 -4 4 9 8 34 9 180 -5 295 -28z m-438 -19 c22
-28 34 -82 34 -153 l0 -67 -57 -43 c-32 -24 -79 -63 -105 -87 l-46 -43 -40 28
c-60 43 -67 66 -37 138 13 33 32 95 42 138 l18 78 60 19 c66 22 111 19 131 -8z
m-456 -32 c-16 -31 -23 -19 -9 16 6 16 13 24 16 17 2 -7 -1 -22 -7 -33z m710
-38 c44 -19 45 -20 20 -30 -14 -5 -51 -22 -84 -36 -32 -14 -60 -26 -61 -26 -1
0 -5 24 -9 53 -3 28 -9 62 -12 74 l-6 23 53 -19 c30 -10 74 -28 99 -39z m-853
-37 c-12 -32 -42 -73 -103 -138 -47 -51 -109 -127 -137 -169 -32 -48 -58 -78
-69 -78 -23 0 -23 0 13 73 48 95 115 193 172 255 54 57 127 115 135 108 2 -3
-3 -26 -11 -51z m288 13 c-9 -43 -66 -180 -72 -174 -3 2 0 37 7 78 8 56 17 79
37 100 15 16 29 28 31 28 2 0 1 -15 -3 -32z m946 -92 c1 -30 0 -59 -4 -63 -4
-3 -20 6 -36 21 l-30 28 27 54 c30 63 39 55 43 -40z m252 63 c54 -27 104 -74
128 -121 31 -60 28 -63 -61 -63 -90 0 -81 -9 -99 95 -5 31 -13 68 -16 83 -9
33 -6 33 48 6z m-393 1 c0 -5 -4 -10 -9 -10 -6 0 -13 5 -16 10 -3 6 1 10 9 10
9 0 16 -4 16 -10z m-1335 -99 c-30 -43 -79 -129 -109 -191 -30 -61 -66 -125
-81 -140 l-28 -29 -41 21 c-63 32 -116 70 -116 82 1 6 30 58 65 116 l64 105
143 56 c79 31 146 57 151 58 4 1 -17 -34 -48 -78z m1261 58 c37 -22 37 -21 -9
-86 -23 -33 -42 -46 -81 -59 -28 -9 -96 -36 -150 -60 -55 -24 -101 -42 -103
-40 -2 2 6 38 19 81 l23 77 60 30 c54 28 177 75 199 77 5 1 24 -8 42 -20z
m350 -136 c0 -1 -9 4 -19 12 -15 11 -16 17 -6 41 l12 29 8 -40 c4 -22 6 -41 5
-42z m362 5 c16 -16 15 -28 -3 -28 -8 0 -15 2 -15 4 0 2 -3 11 -6 20 -7 19 7
21 24 4z m-1628 -30 c0 -7 -4 -40 -10 -72 -9 -55 -39 -106 -62 -106 -4 0 -8
27 -8 61 0 50 5 66 26 95 26 34 54 45 54 22z m474 -86 c-33 -90 -45 -101 -73
-66 -12 15 -21 30 -21 34 0 10 111 112 117 107 2 -2 -8 -36 -23 -75z m621 59
c-3 -5 -29 -17 -58 -27 -28 -9 -76 -27 -105 -40 l-53 -23 21 29 c26 36 31 40
89 55 55 16 114 19 106 6z m-912 -137 c-7 -44 -13 -52 -57 -81 -26 -18 -53
-33 -58 -33 -6 0 -8 17 -3 45 4 33 21 65 61 118 30 39 55 76 56 82 1 5 3 -11
5 -36 2 -25 0 -68 -4 -95z m-379 104 c-48 -79 -97 -148 -105 -148 -14 0 28 73
69 121 33 38 51 52 36 27z m426 -26 c0 -21 -6 -46 -12 -55 -11 -15 -12 -8 -10
38 4 62 22 76 22 17z m50 2 c11 -13 9 -19 -11 -40 l-25 -24 4 40 c4 43 12 49
32 24z m1240 -1 c0 -29 -54 -133 -109 -210 -28 -40 -53 -73 -54 -73 -2 0 2 33
9 73 7 39 13 107 14 150 l0 77 70 0 c60 0 70 -2 70 -17z m178 -25 c128 -60
110 -275 -50 -592 -79 -157 -231 -333 -382 -443 -65 -48 -71 -50 -105 -41 -20
6 -38 12 -40 14 -2 2 13 28 33 59 47 70 80 144 113 254 48 160 53 185 53 253
l0 67 93 123 c103 136 146 207 173 285 21 59 28 60 112 21z m-988 -23 c0 -9
-132 -91 -173 -109 -28 -11 -37 -12 -35 -3 2 6 49 35 103 64 110 57 105 55
105 48z m-1656 -27 c-70 -118 -137 -216 -147 -213 -7 3 -25 9 -41 15 l-29 11
34 36 c35 37 179 163 186 163 2 0 1 -6 -3 -12z m1319 -11 c15 -23 13 -24 -46
-62 -34 -21 -73 -45 -87 -54 l-25 -16 22 30 c32 46 104 125 113 125 4 0 15
-10 23 -23z m613 -64 c-26 -43 -62 -95 -80 -117 l-33 -38 -52 35 c-28 20 -60
39 -71 42 -11 4 -20 10 -20 14 0 16 288 156 299 145 2 -2 -17 -39 -43 -81z
m148 10 c-12 -96 -44 -226 -70 -284 -26 -57 -28 -59 -65 -59 -37 0 -38 2 -51
48 l-14 47 62 81 c34 45 78 111 99 148 20 36 38 66 41 66 2 0 1 -21 -2 -47z
m-1294 -6 c0 -14 -35 -38 -43 -30 -3 3 1 16 10 29 15 24 33 24 33 1z m-595
-26 c3 -6 32 -25 65 -43 62 -34 68 -43 48 -71 -10 -12 -36 -18 -100 -23 -49
-4 -88 -4 -88 -1 0 3 12 38 26 76 25 68 36 82 49 62z m898 -22 c-11 -12 -27
-19 -34 -17 -9 3 -3 11 16 21 40 22 43 21 18 -4z m-609 -4 c-4 -8 -11 -15 -16
-15 -6 0 -5 6 2 15 7 8 14 15 16 15 2 0 1 -7 -2 -15z m1703 -107 c-4 -43 -51
-137 -63 -126 -2 3 7 49 21 102 14 54 25 108 26 120 0 14 4 9 11 -14 5 -19 8
-56 5 -82z m-2153 44 c-12 -39 -20 -52 -35 -52 -10 0 -19 2 -19 5 0 9 62 106
66 103 2 -2 -4 -27 -12 -56z m556 28 c-24 -15 -31 -11 -18 10 9 13 16 16 23 9
7 -7 5 -13 -5 -19z m1113 -46 c17 -9 45 -26 60 -37 l29 -20 -38 -38 c-21 -22
-54 -50 -74 -64 -33 -23 -38 -24 -107 -14 l-71 11 -7 45 c-3 25 -4 47 -2 49 3
3 33 27 67 54 68 52 68 52 143 14z m-917 -25 c18 -20 18 -20 -11 -13 -42 10
-49 15 -34 25 20 12 24 11 45 -12z m614 -14 c-18 -19 -35 -33 -38 -31 -7 8 30
55 46 59 9 3 19 5 21 6 3 0 -10 -15 -29 -34z m-390 7 c0 -11 -39 -47 -44 -41
-9 9 15 49 29 49 8 0 15 -4 15 -8z m254 -24 c-38 -64 -68 -81 -102 -59 -10 6
-7 15 13 39 21 25 35 32 61 32 26 0 33 -3 28 -12z m-1498 -24 c22 -9 40 -17
41 -18 2 -2 -22 -50 -52 -107 -87 -167 -105 -274 -62 -359 56 -111 213 -166
364 -127 l52 14 21 -58 c25 -70 85 -135 154 -167 35 -17 79 -26 164 -33 64 -5
131 -13 150 -19 37 -10 72 -36 72 -54 0 -7 -29 -29 -66 -50 -36 -21 -115 -74
-177 -118 l-112 -79 -100 6 c-135 8 -263 29 -365 60 -47 14 -152 39 -235 55
-197 40 -267 64 -310 105 -30 27 -35 39 -35 77 0 126 138 455 283 675 71 108
153 213 166 213 5 0 26 -7 47 -16z m758 -31 c-9 -21 -31 -75 -48 -120 -17 -46
-35 -83 -40 -83 -16 0 2 115 27 172 18 41 31 58 49 61 12 2 24 5 26 6 1 0 -5
-16 -14 -36z m203 -14 c43 -12 82 -25 86 -29 5 -4 -2 -17 -14 -29 -29 -27
-243 -132 -247 -121 -6 16 75 200 88 200 6 0 45 -9 87 -21z m733 -9 c0 -13 -7
-20 -20 -20 -23 0 -26 10 -8 28 18 18 28 15 28 -8z m1331 -56 c-2 -93 -25
-185 -69 -274 -29 -60 -57 -96 -142 -180 -130 -130 -258 -224 -289 -212 -20 7
-18 10 28 45 74 57 219 213 274 295 53 79 157 291 178 360 7 23 14 40 17 37 2
-2 4 -34 3 -71z m-2820 60 c34 -6 37 -9 48 -56 10 -44 64 -138 80 -138 3 0 16
-8 29 -18 23 -18 23 -19 7 -58 -8 -22 -21 -71 -28 -109 l-13 -70 -45 -12
c-107 -28 -211 -7 -258 53 -45 56 -18 168 81 342 23 39 46 72 52 72 6 0 27 -3
47 -6z m263 -26 c-4 -13 -15 -42 -25 -66 -17 -39 -21 -42 -39 -32 -27 14 -60
68 -60 98 0 21 4 22 66 22 63 0 65 -1 58 -22z m120 -35 c-8 -25 -14 -61 -14
-80 0 -26 -4 -33 -20 -33 -11 0 -20 2 -20 4 0 14 58 156 64 156 2 0 -2 -21
-10 -47z m1506 5 c0 -14 -8 -18 -37 -18 l-37 0 29 30 c30 31 45 27 45 -12z
m-760 -28 c0 -5 -2 -10 -4 -10 -3 0 -8 5 -11 10 -3 6 -1 10 4 10 6 0 11 -4 11
-10z m-87 -57 c-6 -15 -82 -57 -90 -50 -2 3 3 17 11 31 9 14 23 38 32 53 l17
26 17 -23 c10 -13 16 -30 13 -37z m409 18 c19 -4 25 -10 19 -19 -8 -13 -145
-56 -162 -50 -6 2 3 20 18 40 29 39 57 45 125 29z m-242 -36 c-7 -8 -17 -15
-22 -15 -6 0 -5 7 2 15 7 8 17 15 22 15 6 0 5 -7 -2 -15z m862 -52 c-77 -88
-257 -264 -347 -337 -69 -57 -85 -66 -120 -66 l-40 0 62 34 c72 39 122 80 176
145 22 25 55 56 75 70 50 32 148 129 174 169 18 30 56 56 67 46 2 -2 -19 -29
-47 -61z m-225 41 l41 -5 -15 -45 c-9 -27 -28 -54 -47 -69 -76 -58 -250 -118
-413 -142 l-63 -10 -20 34 c-11 19 -20 36 -20 38 0 1 15 12 33 22 18 11 49 34
70 53 22 19 70 44 115 59 43 15 98 39 123 53 45 27 64 28 196 12z m-984 -26
c-10 -17 -24 -33 -32 -36 -8 -3 -1 12 15 32 36 44 42 46 17 4z m1087 18 c0 -3
-4 -8 -10 -11 -5 -3 -10 -1 -10 4 0 6 5 11 10 11 6 0 10 -2 10 -4z m248 -33
c-26 -95 -89 -182 -187 -257 -54 -41 -179 -116 -195 -116 -3 0 52 57 125 127
72 70 160 162 196 205 35 43 66 78 68 78 2 0 -1 -17 -7 -37z m-1827 -72 c4 -3
-13 -25 -37 -49 l-44 -43 0 33 c0 64 9 78 44 71 17 -3 34 -8 37 -12z m989 -6
c0 -10 -63 -36 -77 -31 -20 8 -5 29 17 23 10 -2 24 -1 31 4 15 10 29 12 29 4z
m-295 -45 c3 -6 -19 -45 -50 -88 l-57 -77 -76 -17 c-93 -21 -102 -21 -102 -6
0 7 19 52 41 100 l42 87 76 4 c42 1 86 4 98 5 12 1 25 -3 28 -8z m-825 -35 c0
-19 -4 -35 -10 -35 -11 0 -13 30 -4 54 10 25 14 19 14 -19z m537 23 c-3 -7
-24 -56 -46 -108 l-40 -95 -65 -9 c-36 -4 -72 -6 -80 -3 -19 7 -36 69 -36 129
0 47 1 48 48 72 39 21 61 25 136 26 67 0 87 -3 83 -12z m466 -70 c9 -11 17
-24 17 -28 0 -4 -28 -11 -62 -14 -35 -4 -74 -10 -87 -13 -24 -6 -24 -5 8 40
31 42 36 45 70 40 20 -3 44 -14 54 -25z m-823 -59 c0 -44 -14 -45 -31 -1 -7
18 -6 28 3 34 23 14 28 9 28 -33z m1280 1 c-39 -34 -176 -103 -233 -118 -36
-10 -38 -9 -53 20 -9 17 -12 34 -7 38 4 4 41 13 81 19 40 7 110 25 155 41 45
15 84 28 87 28 3 1 -11 -12 -30 -28z m387 -98 c-25 -38 -49 -72 -54 -75 -5 -3
-30 -1 -57 5 l-48 10 79 53 c43 29 87 62 98 74 37 42 26 2 -18 -67z m-1787 64
c0 -28 81 -106 128 -122 33 -12 55 -29 75 -57 l29 -40 -75 6 c-114 8 -185 54
-222 144 -21 49 -19 60 13 71 38 15 52 14 52 -2z m1028 -61 c21 -46 16 -52
-55 -58 -86 -9 -217 -9 -266 -1 -36 6 -37 8 -21 25 22 24 172 54 290 58 35 1
43 -3 52 -24z m-662 -143 c-4 -3 -20 8 -37 24 l-31 29 34 5 c30 5 33 3 36 -23
2 -16 1 -32 -2 -35z m168 48 c24 0 35 -7 47 -29 9 -16 35 -37 57 -46 l41 -18
-55 -23 c-54 -22 -56 -22 -116 -5 -68 19 -78 33 -70 95 4 36 6 38 34 32 17 -3
45 -6 62 -6z m1116 -48 c17 -6 13 -13 -35 -50 -57 -45 -180 -111 -256 -137
-24 -9 -77 -18 -118 -22 l-74 -6 7 54 c4 29 8 54 9 54 1 0 27 17 57 37 31 19
78 40 105 46 28 6 74 19 104 30 44 15 66 17 118 10 35 -5 73 -12 83 -16z m125
-31 c18 -7 15 -11 -23 -30 -88 -45 -99 -45 -51 -2 48 44 46 43 74 32z m-685
-38 c0 -11 -213 -121 -225 -118 -5 2 -50 16 -99 30 -49 15 -85 30 -80 35 5 4
41 19 79 33 61 23 87 26 198 26 70 1 127 -2 127 -6z m800 -28 c-59 -32 -76
-31 -25 0 22 14 47 25 55 24 8 0 -5 -11 -30 -24z m320 -26 c137 -37 192 -85
206 -177 15 -98 -26 -198 -166 -406 -48 -72 -102 -158 -121 -191 -66 -119
-156 -186 -301 -224 -58 -16 -297 -51 -343 -51 -6 0 -10 35 -11 78 0 42 -6 94
-13 114 -11 34 -10 45 14 114 29 83 27 120 -6 150 -22 20 -164 50 -287 60 -75
6 -85 9 -102 34 -10 15 -34 37 -53 50 l-34 23 42 56 c23 31 54 77 69 104 l28
47 94 0 c250 0 568 81 779 199 82 46 104 48 205 20z m-1118 -74 c-5 -28 -5
-28 -52 -18 l-33 6 34 18 c47 25 57 24 51 -6z m-605 -56 c19 -12 55 -27 81
-34 l47 -12 -90 -27 c-90 -28 -267 -66 -308 -66 -21 0 -21 0 3 17 36 25 224
143 229 143 2 0 19 -10 38 -21z m550 -83 c7 -7 -33 -71 -81 -131 l-40 -50
-100 -1 c-83 0 -120 -6 -211 -33 -113 -33 -402 -151 -490 -200 -27 -15 -95
-38 -150 -51 -55 -12 -131 -33 -169 -46 -39 -13 -72 -21 -74 -19 -13 13 137
187 262 303 l85 79 83 6 c169 14 420 73 557 132 52 23 65 24 190 20 73 -2 136
-6 138 -9z m-163 -221 c-1 -5 -35 -36 -75 -67 -64 -49 -84 -59 -149 -72 -91
-18 -461 -68 -466 -63 -5 4 133 66 270 121 87 35 240 81 301 89 51 7 120 3
119 -8z m180 -82 c4 -10 -15 -13 -79 -13 l-84 0 42 39 41 39 38 -26 c21 -15
40 -33 42 -39z m46 -85 c0 -7 -28 -35 -63 -63 -98 -78 -272 -256 -296 -302
-11 -23 -21 -57 -21 -75 0 -21 -17 -63 -45 -113 -75 -132 -66 -126 -160 -110
-44 8 -147 23 -230 35 -82 12 -176 30 -209 41 -128 43 -186 113 -186 221 l0
56 48 6 c296 43 608 146 805 267 56 34 119 46 265 48 68 1 92 -2 92 -11z m138
-14 c34 -24 27 -29 -38 -26 -42 3 -60 8 -60 17 0 26 66 32 98 9z m180 -19 c15
-5 16 -44 2 -80 l-10 -27 -35 31 c-20 17 -50 38 -68 47 -30 16 -56 41 -57 55
0 6 142 -16 168 -26z m-308 -4 c0 -5 -10 -11 -22 -14 -22 -6 -22 -6 -4 8 23
17 26 18 26 6z m-620 -43 c-89 -40 -256 -89 -399 -118 -80 -16 -147 -27 -150
-24 -3 3 17 27 44 53 l50 48 170 22 c94 12 195 26 225 30 97 15 111 12 60 -11z
m769 -15 c3 -2 -5 -26 -16 -53 -12 -28 -18 -48 -13 -45 5 3 16 25 25 50 17 43
18 44 44 31 14 -8 39 -28 55 -45 32 -34 33 -24 -13 -151 -30 -82 -28 -135 8
-171 16 -16 37 -29 45 -29 21 0 20 -19 -3 -73 -51 -118 -142 -162 -336 -161
-109 0 -395 40 -395 55 0 8 76 139 87 150 5 5 26 0 48 -11 60 -30 100 -35 150
-16 109 42 205 230 205 403 0 38 2 72 5 75 6 6 97 -2 104 -9z m-133 -87 c-22
-193 -104 -338 -207 -364 -35 -9 -51 -7 -95 9 -30 11 -56 24 -58 28 -7 11 104
202 156 268 46 60 100 106 156 133 33 16 38 17 46 3 4 -8 5 -43 2 -77z m-1208
-9 c-32 -44 -34 -45 -103 -52 -129 -13 -154 6 -58 43 62 25 186 61 191 57 2
-2 -12 -23 -30 -48z m-284 -92 c11 -31 73 -47 151 -40 l71 7 -4 -36 c-7 -56
16 -130 53 -173 65 -76 189 -122 400 -148 178 -22 265 -37 265 -45 0 -18 -143
-139 -197 -167 -94 -50 -164 -66 -262 -60 -101 6 -152 24 -276 100 -50 30
-110 64 -135 77 -66 34 -180 112 -219 151 -18 19 -42 53 -53 77 -16 36 -18 48
-8 78 16 46 60 97 134 151 64 48 71 50 80 28z m1795 -102 c1 -64 -10 -78 -37
-51 -16 16 -15 34 4 99 14 44 18 50 25 34 4 -11 8 -48 8 -82z m-627 55 c-11
-18 -29 -49 -41 -68 -22 -36 -30 -25 -10 13 15 29 59 87 65 87 3 0 -3 -15 -14
-32z"/>
<path d="M2529 6753 c-9 -11 -10 -14 -1 -9 18 11 15 -18 -5 -40 -10 -11 -31
-26 -47 -34 -16 -8 -36 -31 -45 -50 -9 -19 -24 -46 -33 -60 -53 -78 -56 -266
-8 -372 39 -85 68 -129 106 -158 22 -16 47 -36 56 -44 39 -35 120 -87 131 -84
7 1 26 -6 44 -15 18 -9 50 -17 73 -17 22 0 40 -5 40 -11 0 -12 128 -2 145 12
6 4 22 10 35 12 70 14 118 52 124 99 1 3 4 10 9 14 4 4 7 31 7 60 0 29 7 75
16 101 20 59 7 133 -31 172 -73 78 -85 93 -85 101 0 6 -7 10 -15 10 -8 0 -22
11 -31 25 -9 14 -21 25 -28 25 -11 0 -71 52 -78 67 -1 5 -23 21 -48 36 -25 15
-52 31 -60 37 -8 5 -38 19 -67 32 -29 13 -50 28 -48 35 2 6 -5 13 -16 16 -10
3 -19 1 -19 -4 0 -5 -7 -9 -15 -9 -8 0 -15 6 -15 13 0 9 -2 9 -8 0 -4 -6 -18
-9 -32 -6 -19 3 -26 11 -28 30 -3 34 -6 37 -23 16z m98 -145 c15 -6 33 -10 39
-9 6 0 17 -6 24 -14 7 -8 21 -15 31 -15 19 0 23 -10 19 -39 -1 -12 1 -13 14
-2 12 10 20 10 43 -3 15 -9 36 -18 46 -22 9 -3 17 -13 17 -20 0 -8 4 -14 10
-14 5 0 25 -13 43 -30 19 -16 39 -30 43 -30 5 0 24 -21 43 -46 19 -25 42 -49
53 -55 10 -5 18 -16 18 -24 0 -8 8 -20 18 -27 11 -7 23 -22 29 -33 12 -24 9
-125 -5 -179 -11 -41 -74 -112 -91 -102 -5 4 -12 2 -15 -3 -4 -5 -23 -12 -44
-15 -90 -15 -117 -15 -137 -2 -11 7 -38 16 -60 20 -22 4 -46 12 -52 18 -9 7
-13 7 -13 -1 0 -8 -6 -7 -16 3 -8 9 -21 16 -29 16 -18 0 -57 32 -138 115 -82
83 -92 101 -102 180 -14 111 -10 186 15 245 26 60 58 103 75 97 5 -2 19 -1 30
4 22 9 49 5 92 -13z"/>
<path d="M2750 6681 c0 -6 4 -13 10 -16 6 -3 7 1 4 9 -7 18 -14 21 -14 7z"/>
<path d="M8154 6338 c-14 -4 -72 -10 -128 -13 -112 -7 -164 -13 -176 -20 -5
-3 -69 -6 -144 -7 -125 -1 -139 -3 -167 -24 -17 -12 -50 -26 -72 -29 -23 -4
-46 -11 -52 -15 -5 -3 -38 -17 -73 -30 -68 -25 -92 -42 -92 -67 0 -31 157 4
251 56 25 14 75 -13 83 -45 4 -16 14 -42 21 -59 23 -51 22 -77 -5 -106 -14
-15 -36 -30 -50 -34 -14 -4 -37 -16 -52 -26 -14 -11 -33 -19 -42 -19 -13 0
-15 -6 -10 -27 9 -39 29 -59 46 -46 7 6 49 29 93 53 44 23 85 48 90 54 6 6 31
22 58 35 26 13 47 27 47 30 0 4 20 15 45 26 25 11 45 24 45 28 0 5 5 5 10 2 6
-3 10 -1 10 5 0 6 25 22 55 36 30 14 57 30 60 35 4 5 14 9 25 9 10 0 21 7 24
16 3 9 12 14 19 11 6 -2 22 7 34 20 12 12 28 23 35 23 7 0 25 11 40 25 15 14
31 25 35 25 4 0 24 14 43 30 28 23 32 31 23 41 -14 14 -87 18 -129 7z m-284
-78 c0 -6 27 -10 60 -10 33 0 60 4 60 9 0 11 53 1 62 -12 6 -10 -18 -27 -79
-59 -13 -6 -23 -17 -23 -25 0 -7 -6 -13 -13 -13 -19 0 -121 -50 -129 -64 -4
-6 -8 -7 -8 -2 0 6 -6 3 -12 -6 -14 -17 -61 -29 -75 -19 -11 8 -32 55 -49 108
-13 43 -13 43 14 49 15 3 42 10 61 15 19 4 37 6 41 4 12 -8 81 16 75 26 -4 5
-1 9 4 9 6 0 11 -4 11 -10z"/>
<path d="M2315 5960 c-3 -5 -25 -9 -48 -9 -79 2 -101 -9 -228 -117 -47 -39
-99 -105 -99 -124 0 -6 -4 -10 -9 -10 -5 0 -13 -14 -16 -32 -4 -18 -11 -39
-15 -48 -5 -8 -14 -35 -21 -60 -8 -25 -24 -55 -37 -67 -31 -29 -25 -58 11 -58
15 1 27 -2 27 -6 0 -3 11 -5 25 -4 21 3 24 0 19 -19 -5 -20 0 -24 40 -33 25
-6 46 -7 46 -2 0 4 16 6 36 5 20 -2 41 3 49 10 7 8 20 14 28 14 8 0 20 6 26
14 17 20 -6 32 -59 30 -24 -1 -53 4 -64 10 -14 8 -20 8 -23 -1 -3 -8 -11 -5
-24 8 -10 10 -26 19 -34 19 -11 0 -12 5 -6 23 5 12 15 42 22 67 7 25 21 61 31
80 10 19 18 43 18 52 0 17 112 138 128 138 4 0 15 9 25 20 9 11 25 20 35 20
10 0 23 5 28 10 17 17 125 16 157 -1 15 -8 44 -38 66 -66 32 -43 39 -61 44
-115 12 -136 -8 -284 -55 -397 -11 -27 -20 -35 -43 -36 -17 -1 -33 2 -36 7 -3
5 -23 12 -44 15 -52 8 -103 53 -60 53 17 0 20 16 5 25 -5 3 -10 2 -10 -4 0 -6
-7 -8 -15 -5 -8 4 -15 2 -15 -3 0 -11 -30 -13 -45 -4 -5 4 -16 6 -22 5 -7 -1
-22 -2 -33 -3 -14 -1 -20 -8 -20 -25 0 -24 19 -37 60 -41 33 -4 60 -17 54 -27
-5 -7 -2 -8 5 -4 7 5 18 1 25 -9 8 -11 27 -18 53 -19 23 0 41 -5 40 -10 -1 -6
8 -11 20 -12 13 -1 28 -6 35 -11 7 -5 26 -10 41 -11 15 -1 37 -7 48 -12 10 -6
19 -7 19 -3 0 4 6 -1 13 -11 10 -14 18 -15 40 -7 22 9 29 8 34 -4 4 -11 9 -13
18 -5 7 6 19 8 26 6 8 -3 30 -7 49 -10 19 -3 36 -9 37 -13 2 -5 33 -7 70 -6
38 1 72 -2 80 -9 21 -17 90 18 99 51 9 31 5 65 -7 69 -5 2 -6 9 -2 15 11 18
13 58 2 52 -5 -4 -5 3 0 17 6 16 5 31 -2 44 -7 10 -12 35 -13 54 -1 73 -8 125
-17 137 -5 7 -6 17 -2 23 3 5 1 10 -5 10 -8 0 -10 9 -6 24 13 51 -66 38 -200
-34 -32 -18 -69 -41 -81 -52 -28 -26 -51 -13 -69 38 -9 27 -10 42 -2 51 12 15
12 116 -1 141 -4 9 -6 22 -4 29 2 6 -1 14 -6 18 -6 3 -11 15 -11 26 0 10 -7
19 -15 19 -9 0 -20 11 -25 25 -5 14 -14 25 -20 25 -5 0 -10 6 -10 14 0 13 -47
32 -57 22 -3 -2 -14 5 -25 16 -15 15 -22 17 -28 8 -5 -9 -9 -9 -14 -1 -9 14
-23 14 -31 1z m549 -420 c8 -16 10 -30 5 -30 -12 0 -11 -47 1 -55 11 -7 13
-236 3 -262 -6 -15 -103 -16 -103 -1 0 4 -17 6 -37 3 -20 -2 -42 0 -49 6 -7 6
-23 10 -36 8 -13 -1 -30 1 -38 4 -22 8 -73 21 -87 22 -27 1 -33 21 -13 43 11
11 20 26 20 32 0 6 7 13 15 16 8 4 15 18 15 34 0 19 11 39 33 59 52 50 140
111 159 111 10 0 18 4 18 9 0 7 46 26 72 30 3 1 13 -12 22 -29z"/>
<path d="M7975 5490 c-3 -5 -1 -10 4 -10 6 0 11 5 11 10 0 6 -2 10 -4 10 -3 0
-8 -4 -11 -10z"/>
<path d="M8150 5463 c-14 -3 -29 -9 -34 -14 -6 -5 -15 -4 -24 3 -8 7 -16 8
-20 2 -4 -5 -23 -10 -42 -11 -19 0 -54 -3 -78 -5 -24 -2 -46 0 -49 5 -3 5 -16
-1 -29 -14 -19 -18 -26 -20 -38 -10 -11 10 -16 9 -23 -2 -11 -19 -86 -37 -106
-25 -11 6 -19 3 -25 -8 -5 -9 -13 -16 -18 -16 -11 -1 -29 -6 -66 -20 -15 -5
-32 -7 -37 -3 -6 3 -25 -9 -41 -27 -36 -39 -39 -79 -9 -109 11 -11 22 -33 24
-47 1 -15 8 -26 14 -24 6 1 11 -9 11 -22 0 -14 10 -30 23 -39 12 -8 23 -25 24
-37 1 -12 9 -30 17 -39 9 -10 16 -24 16 -32 0 -9 10 -26 23 -39 12 -14 21 -28
19 -32 -1 -5 5 -8 13 -8 10 0 15 -7 13 -17 -2 -14 4 -18 29 -18 26 -1 41 9 73
42 22 24 40 44 40 47 0 2 15 19 34 39 19 20 40 50 47 67 9 19 21 30 34 30 27
0 79 -56 71 -76 -3 -8 3 -35 14 -59 11 -24 20 -46 20 -49 0 -4 8 -14 18 -24 9
-11 26 -31 36 -45 10 -15 27 -27 37 -27 10 0 21 -5 24 -11 16 -26 93 -43 108
-24 4 6 13 3 21 -8 9 -12 16 -14 21 -7 3 5 11 8 16 5 5 -4 9 -1 9 5 0 6 4 8
10 5 5 -3 15 3 22 15 7 11 23 20 35 20 12 0 28 6 35 13 7 7 26 20 41 30 15 10
33 30 40 45 6 15 14 29 18 32 3 3 22 39 42 80 43 88 57 179 43 284 -6 48 -6
78 2 100 18 49 15 66 -11 66 -13 0 -28 -5 -35 -12 -7 -7 -12 -9 -12 -5 0 4 -8
3 -19 -2 -15 -8 -20 -5 -31 17 -7 16 -15 22 -17 15 -3 -7 -20 -13 -38 -13 -21
0 -35 -6 -39 -16 -3 -8 -10 -12 -16 -9 -5 3 -10 1 -10 -5 0 -7 -6 -10 -14 -7
-8 3 -18 -5 -25 -19 -6 -13 -17 -24 -25 -24 -14 0 -28 -34 -18 -44 10 -10 40
-6 44 6 2 6 15 13 29 15 13 2 25 8 27 13 2 5 13 5 28 0 19 -8 24 -6 24 6 0 13
3 14 15 4 8 -7 25 -10 39 -6 20 5 24 2 24 -17 1 -12 3 -71 5 -132 3 -60 2
-114 -1 -120 -4 -5 -7 -14 -9 -20 -7 -33 -37 -102 -49 -116 -8 -8 -14 -20 -14
-25 0 -15 -62 -70 -88 -78 -12 -4 -22 -12 -22 -17 0 -5 -11 -9 -24 -9 -14 0
-27 -4 -30 -9 -9 -14 -66 3 -121 36 -45 26 -77 66 -101 123 -36 89 -44 111
-44 129 0 10 -4 21 -10 23 -5 2 -11 31 -14 65 -2 34 -6 65 -9 70 -2 4 -4 31
-3 58 1 36 5 49 15 47 7 -1 19 5 26 14 7 10 14 13 18 7 4 -6 22 -8 47 -3 64
12 120 -7 73 -24 -11 -5 -13 -10 -6 -17 12 -12 43 -1 43 16 0 15 35 29 49 21
5 -4 16 1 24 9 9 8 20 15 26 15 6 0 9 10 7 23 -2 16 -11 23 -31 25 -15 2 -32
-1 -37 -6 -5 -5 -24 -6 -44 -2 -20 5 -34 4 -34 -2 0 -5 -7 -2 -16 6 -8 9 -16
15 -17 15 -1 -1 -13 -4 -27 -6z m-190 -118 c0 -14 -5 -25 -11 -25 -6 0 -8 -8
-4 -19 3 -11 1 -22 -4 -25 -6 -4 -6 -18 -2 -34 6 -19 3 -41 -8 -67 -29 -70
-84 -158 -103 -163 -10 -2 -15 -8 -12 -13 5 -9 -43 -59 -57 -59 -17 0 -49 40
-49 60 0 11 -9 25 -20 32 -11 7 -20 18 -20 24 0 6 -6 24 -14 40 -36 75 -55
122 -61 155 -6 35 -5 37 34 52 22 9 47 14 56 11 8 -3 15 -1 15 5 0 6 7 8 15 5
8 -4 15 -1 15 6 0 8 10 11 29 7 20 -4 33 -1 42 9 6 8 19 12 28 10 9 -3 34 -1
56 4 69 14 75 12 75 -15z"/>
<path d="M2421 5144 c0 -11 3 -14 6 -6 3 7 2 16 -1 19 -3 4 -6 -2 -5 -13z"/>
<path d="M8025 4692 c-3 -4 -21 -5 -39 -4 -18 2 -51 -3 -74 -11 -23 -8 -42
-11 -42 -6 0 11 -29 0 -59 -23 -13 -10 -30 -18 -39 -18 -18 0 -62 -46 -53 -56
3 -4 0 -5 -8 -2 -34 10 -85 -84 -77 -142 2 -14 11 -45 20 -69 9 -24 18 -67 20
-96 4 -51 47 -134 71 -135 6 0 28 -9 50 -20 22 -11 44 -20 50 -20 6 0 20 -8
31 -18 10 -9 31 -17 47 -17 15 1 27 -4 27 -11 0 -6 22 -14 48 -18 26 -3 57
-12 67 -20 26 -17 118 -31 227 -35 41 -1 46 -3 41 -18 -6 -15 -4 -16 9 -6 8 7
19 9 23 5 5 -4 5 -2 2 4 -4 7 0 15 9 18 23 9 27 8 21 -9 -4 -8 -2 -17 4 -20 5
-4 9 -3 8 2 -5 29 3 43 24 43 24 0 61 -31 52 -43 -3 -4 1 -2 8 4 9 9 9 12 0
16 -22 8 -14 49 16 86 48 61 52 220 9 332 -40 103 -186 247 -264 260 -21 4
-64 15 -94 25 -66 21 -126 31 -135 22z m64 -63 c14 9 75 -9 176 -52 119 -51
119 -51 199 -215 32 -63 36 -81 36 -148 0 -79 -11 -114 -35 -114 -8 0 -15 -4
-15 -8 0 -15 -43 -29 -88 -29 -23 0 -45 -2 -47 -5 -3 -3 -20 -3 -38 -1 -18 3
-39 6 -48 6 -11 1 -14 8 -11 22 4 19 4 19 -10 1 -13 -16 -22 -18 -64 -11 -27
4 -53 10 -59 15 -5 4 -23 10 -40 13 -67 13 -92 21 -138 49 -27 15 -52 26 -57
23 -5 -3 -18 3 -28 13 -11 11 -30 22 -44 25 -13 4 -31 19 -39 34 -8 16 -17 31
-22 34 -4 3 -10 21 -12 40 -3 19 -9 49 -15 68 -8 27 -6 43 9 77 11 23 17 45
13 48 -3 3 0 6 6 6 6 0 26 12 44 28 67 56 100 70 165 72 97 3 113 5 113 13 0
4 8 3 18 -2 10 -5 24 -6 31 -2z"/>
<path d="M2647 4636 c-60 -7 -111 -16 -115 -21 -4 -6 -31 -10 -59 -10 -29 0
-53 -3 -53 -7 0 -4 -25 -6 -55 -5 -30 1 -55 -2 -55 -6 0 -5 -4 -6 -9 -2 -5 3
-12 1 -16 -5 -3 -5 -29 -9 -58 -8 -29 0 -60 -3 -69 -7 -9 -4 -22 -4 -28 0 -5
3 -16 3 -22 -2 -14 -8 -25 -10 -98 -16 -25 -2 -55 -9 -67 -16 -12 -6 -26 -10
-30 -9 -15 4 -82 -13 -88 -21 -9 -15 6 -41 24 -41 9 0 27 -7 39 -16 12 -8 22
-13 22 -11 0 3 21 -2 48 -10 26 -8 56 -16 67 -18 11 -2 54 -16 95 -30 41 -15
89 -29 106 -31 36 -6 192 -59 202 -69 21 -21 74 -34 100 -24 14 6 48 7 74 4
26 -4 86 -8 134 -9 76 -3 89 -1 107 17 l21 21 -35 14 c-21 9 -74 15 -139 16
-96 1 -107 3 -128 25 -21 21 -23 30 -19 95 3 39 6 78 8 86 5 17 77 53 91 44 5
-3 35 -3 68 1 45 5 59 11 63 26 6 21 -2 60 -12 58 -3 -1 -55 -7 -114 -13z
m-194 -113 c9 -5 9 -145 -1 -158 -7 -11 -18 -12 -42 -2 -8 3 -28 8 -45 10 -16
2 -70 17 -120 32 -49 16 -99 29 -110 30 -36 3 -65 25 -64 48 0 12 3 16 6 9 2
-6 9 -10 13 -7 5 3 28 8 52 11 24 4 45 9 48 13 3 4 37 8 75 9 72 2 114 8 123
17 5 4 49 -3 65 -12z m-208 -133 c3 -5 1 -10 -4 -10 -6 0 -11 5 -11 10 0 6 2
10 4 10 3 0 8 -4 11 -10z"/>
<path d="M2677 4191 c-2 -9 2 -34 9 -56 6 -22 12 -35 13 -30 1 11 52 -90 55
-109 1 -6 4 -15 8 -21 3 -5 9 -35 12 -66 l7 -57 -68 -6 c-37 -4 -88 -13 -113
-21 -25 -7 -85 -18 -135 -25 -62 -7 -109 -20 -151 -40 -34 -17 -81 -31 -107
-32 -28 -2 -49 -8 -52 -17 -3 -8 -14 -11 -25 -8 -22 6 -70 -27 -70 -47 0 -7 9
-21 19 -30 18 -16 23 -16 65 -2 26 9 56 16 68 16 12 0 29 7 37 14 9 8 40 18
68 21 29 3 102 22 163 41 61 19 115 32 121 29 5 -4 15 -3 22 2 7 5 36 10 66
12 30 1 64 7 75 13 11 6 53 11 93 11 56 -1 73 3 73 13 0 8 7 14 15 14 23 0 36
41 20 65 -7 11 -19 19 -25 17 -21 -5 -80 42 -80 63 0 11 -12 38 -25 60 -14 22
-25 48 -25 57 0 28 -23 70 -30 57 -5 -6 -17 6 -31 33 -25 45 -63 61 -72 29z"/>
<path d="M8520 4041 c0 -5 5 -13 10 -16 6 -3 10 -2 10 4 0 5 -4 13 -10 16 -5
3 -10 2 -10 -4z"/>
<path d="M8245 3950 c3 -5 11 -10 16 -10 6 0 7 5 4 10 -3 6 -11 10 -16 10 -6
0 -7 -4 -4 -10z"/>
<path d="M8420 3944 c0 -8 5 -12 10 -9 6 3 10 10 10 16 0 5 -4 9 -10 9 -5 0
-10 -7 -10 -16z"/>
<path d="M7664 3905 c-72 -37 -84 -49 -91 -89 -7 -44 20 -122 48 -136 10 -6
19 -17 19 -24 0 -7 10 -18 23 -25 12 -7 35 -30 51 -52 17 -21 34 -39 39 -39 4
0 19 -13 32 -28 21 -25 178 -112 202 -112 6 0 18 -9 28 -20 10 -11 26 -20 35
-20 9 0 25 -9 35 -20 10 -11 23 -20 30 -20 7 0 20 -9 30 -20 10 -11 23 -20 28
-20 5 0 15 -6 21 -14 38 -48 94 -10 61 41 -9 14 -30 32 -47 41 -17 10 -50 31
-74 49 -23 17 -62 37 -86 44 -24 7 -47 17 -53 24 -5 6 -26 17 -45 25 -19 7
-58 30 -86 52 -28 21 -54 38 -57 38 -10 0 -94 88 -101 105 -3 8 -10 15 -15 15
-9 0 -61 79 -61 92 0 3 14 11 30 18 17 7 30 16 30 20 0 4 19 10 42 14 38 6 94
-2 169 -24 19 -6 31 -4 43 8 15 15 16 15 16 -6 0 -12 6 -23 13 -24 22 -2 32
-5 48 -12 9 -4 29 -8 44 -10 15 -2 30 -8 34 -15 4 -7 23 -14 40 -16 18 -2 38
-9 45 -14 6 -5 29 -13 51 -17 22 -4 48 -13 59 -20 10 -7 25 -10 34 -7 12 5 14
2 9 -11 -5 -13 -1 -19 13 -23 11 -3 20 -9 20 -14 0 -5 9 -9 19 -9 10 0 21 -7
25 -15 6 -17 32 -20 41 -6 3 5 -2 28 -11 49 -13 33 -21 41 -50 47 -23 4 -38
14 -43 28 -13 33 -37 49 -79 54 -62 6 -224 45 -269 64 -24 10 -43 16 -43 13 0
-3 -12 1 -27 9 -16 8 -48 20 -73 27 -25 7 -55 16 -68 21 -38 15 -76 10 -128
-16z"/>
<path d="M8330 3900 c0 -5 5 -10 11 -10 5 0 7 5 4 10 -3 6 -8 10 -11 10 -2 0
-4 -4 -4 -10z"/>
<path d="M7244 3382 c4 -7 1 -12 -7 -12 -18 0 -47 -42 -47 -68 0 -11 12 -28
27 -37 25 -17 27 -17 40 1 8 11 19 18 24 17 5 -2 9 0 9 5 0 4 38 8 84 10 61 1
88 -2 98 -12 10 -10 27 -12 61 -6 26 4 50 3 53 -2 3 -4 19 -8 35 -8 17 0 37
-7 45 -15 8 -8 21 -12 29 -8 11 4 14 0 9 -13 -6 -15 -4 -17 6 -7 10 10 24 1
66 -43 29 -30 61 -68 71 -84 9 -17 21 -30 25 -30 4 0 8 -7 8 -15 0 -8 5 -15
10 -15 6 0 10 -12 10 -28 0 -16 8 -32 20 -40 30 -18 26 -102 -5 -102 -6 0 -25
-12 -40 -26 -16 -15 -45 -33 -64 -41 -20 -8 -50 -26 -68 -39 -46 -35 -135 -43
-213 -19 -72 22 -91 17 -81 -22 8 -31 42 -53 81 -53 14 0 45 -6 70 -14 42 -13
48 -12 69 5 13 11 31 19 40 19 45 1 191 73 191 96 0 8 4 12 10 9 30 -19 152
114 123 134 -5 3 -23 31 -39 61 -16 30 -33 58 -39 62 -7 5 -7 8 0 8 6 0 3 6
-5 13 -16 13 -36 42 -47 67 -3 8 -26 38 -50 67 -27 32 -42 59 -41 74 2 12 -3
24 -11 27 -8 3 -11 0 -7 -7 4 -6 1 -11 -8 -11 -8 0 -19 6 -23 14 -4 7 -24 20
-43 29 -38 17 -170 45 -210 44 -59 -1 -253 14 -262 20 -7 3 -8 1 -4 -5z"/>
<path d="M7167 3063 c-4 -3 -7 -11 -7 -17 0 -6 5 -5 12 2 6 6 9 14 7 17 -3 3
-9 2 -12 -2z"/>
<path d="M6960 3040 c-22 -22 -25 -37 -9 -42 8 -3 8 -14 1 -39 -6 -23 -37 -63
-90 -117 -45 -46 -74 -82 -65 -82 11 0 6 -10 -16 -36 -24 -26 -30 -41 -25 -57
9 -30 9 -30 36 -16 12 7 26 13 29 14 10 0 33 29 49 59 18 35 97 107 142 129
33 16 33 16 56 -11 12 -15 28 -42 34 -59 7 -18 18 -33 25 -33 7 0 13 -7 13
-15 0 -9 6 -18 14 -21 7 -3 28 -33 45 -67 27 -53 101 -159 101 -145 0 3 17
-11 38 -31 40 -38 78 -91 74 -103 -1 -5 5 -8 13 -8 8 0 17 -11 21 -25 8 -30
71 -56 85 -34 17 27 8 56 -31 98 -22 23 -40 46 -40 50 0 4 -11 13 -23 20 -13
7 -32 30 -41 52 -10 21 -28 47 -42 58 -14 11 -25 23 -25 28 0 4 -24 36 -54 71
-30 35 -55 70 -55 78 0 8 -4 14 -9 14 -5 0 -21 24 -36 53 -15 28 -36 61 -46
73 -10 11 -19 25 -19 31 0 6 -5 13 -12 15 -6 2 -16 24 -22 49 -8 31 -16 44
-28 44 -10 0 -23 6 -30 13 -17 17 -35 15 -58 -8z"/>
<path d="M7131 3014 c0 -11 3 -14 6 -6 3 7 2 16 -1 19 -3 4 -6 -2 -5 -13z"/>
<path d="M7177 3023 c-4 -3 -7 -11 -7 -17 0 -6 5 -5 12 2 6 6 9 14 7 17 -3 3
-9 2 -12 -2z"/>
<path d="M6674 2650 c-11 -4 -47 -25 -80 -46 -99 -64 -154 -94 -176 -94 -9 0
-32 -14 -50 -30 -18 -17 -43 -33 -56 -37 -12 -3 -27 -14 -33 -24 -21 -41 80
-45 129 -6 9 7 20 3 39 -14 l26 -24 -7 23 c-3 12 -9 31 -12 41 -4 14 0 21 15
26 12 3 51 25 88 47 37 22 83 47 101 55 31 13 34 13 29 -1 -3 -8 -3 -16 1 -18
21 -9 112 -205 119 -254 5 -38 3 -43 -18 -49 -13 -4 -40 -20 -59 -36 -19 -15
-52 -31 -72 -34 -21 -4 -38 -11 -38 -17 0 -5 -4 -6 -10 -3 -5 3 -10 1 -10 -4
0 -6 -8 -11 -18 -11 -19 0 -62 -39 -62 -57 0 -5 8 -17 18 -25 15 -14 24 -14
67 -3 27 7 57 22 66 34 10 12 26 21 36 21 10 0 46 10 78 23 45 17 61 29 63 45
4 24 32 31 32 7 0 -8 4 -15 9 -15 5 0 11 -8 14 -17 3 -10 18 -55 35 -100 l29
-82 -23 -20 c-13 -12 -29 -21 -34 -21 -6 0 -10 -4 -10 -9 0 -5 -8 -12 -17 -15
-33 -13 -63 -31 -63 -38 0 -5 -6 -8 -14 -8 -7 0 -19 -7 -26 -15 -7 -8 -20 -15
-29 -15 -9 0 -36 -16 -59 -35 -24 -19 -52 -37 -62 -40 -19 -6 -33 -31 -25 -45
9 -15 63 -2 112 26 84 48 137 73 191 89 28 9 52 20 52 25 0 6 5 10 11 10 6 0
26 7 45 16 28 13 34 22 35 48 0 25 9 37 42 61 25 18 42 39 42 50 0 17 -9 21
-54 25 l-54 5 -16 48 c-9 26 -21 51 -27 55 -14 9 -37 79 -30 91 8 12 -62 73
-75 66 -5 -4 -9 0 -9 7 0 17 -73 182 -82 186 -5 2 -8 12 -8 22 0 10 -5 20 -10
22 -6 2 -12 13 -13 25 0 12 -3 20 -6 17 -3 -2 -10 9 -17 26 -13 31 -24 35 -60
20z"/>
</g>
</svg>
